<?xml version="1.0" standalone="no"?>
<!DOCTYPE svg PUBLIC "-//W3C//DTD SVG 20010904//EN"
 "http://www.w3.org/TR/2001/REC-SVG-20010904/DTD/svg10.dtd">
<svg version="1.0" xmlns="http://www.w3.org/2000/svg"
 width="64.000000pt" height="64.000000pt" viewBox="0 0 64.000000 64.000000"
 preserveAspectRatio="xMidYMid meet">

<g transform="translate(0.000000,64.000000) scale(0.100000,-0.100000)"
fill="#000000" stroke="none">
<path d="M220 624 c-227 -82 -293 -362 -125 -529 65 -65 125 -89 225 -89 70 0
94 4 135 24 101 49 174 153 178 253 2 40 -1 52 -13 52 -10 0 -17 -16 -22 -53
-10 -65 -30 -106 -77 -155 -60 -64 -103 -82 -201 -82 -98 0 -141 18 -201 82
-61 64 -74 97 -74 193 0 68 5 93 22 125 25 48 84 106 133 131 49 26 180 26
237 0 l42 -19 -22 -18 c-20 -16 -21 -18 -4 -24 21 -9 84 2 92 16 11 17 -6 89
-21 89 -8 0 -14 -9 -14 -20 0 -20 -2 -19 -52 6 -67 34 -171 42 -238 18z"/>
<path d="M141 392 c-24 -44 -52 -134 -47 -147 8 -21 24 -18 31 5 9 28 61 28
70 0 8 -24 23 -26 31 -5 8 19 -46 157 -63 162 -6 2 -16 -4 -22 -15z m29 -77
c0 -8 -4 -15 -10 -15 -5 0 -10 7 -10 15 0 8 5 15 10 15 6 0 10 -7 10 -15z"/>
<path d="M305 398 c-31 -17 -45 -39 -45 -74 0 -46 9 -63 42 -80 56 -29 124 11
116 68 -2 19 -9 23 -37 23 -39 0 -55 -23 -22 -32 17 -4 19 -8 10 -19 -16 -19
-43 -17 -62 4 -22 24 -21 45 3 67 14 12 28 16 49 12 36 -8 52 10 26 30 -22 16
-53 16 -80 1z"/>
<path d="M464 397 c-3 -8 -4 -47 -2 -88 l3 -74 40 0 c30 0 41 4 43 18 3 13 -3
17 -22 17 -32 0 -35 27 -3 32 12 2 22 10 22 18 0 8 -10 16 -22 18 -32 5 -29
32 3 32 19 0 25 5 22 18 -4 22 -75 30 -84 9z"/>
</g>
</svg>
