<?xml version="1.0" standalone="no"?>
<!DOCTYPE svg PUBLIC "-//W3C//DTD SVG 20010904//EN"
 "http://www.w3.org/TR/2001/REC-SVG-20010904/DTD/svg10.dtd">
<svg version="1.0" xmlns="http://www.w3.org/2000/svg"
 width="512.000000pt" height="512.000000pt" viewBox="0 0 512.000000 512.000000"
 preserveAspectRatio="xMidYMid meet">

<g transform="translate(0.000000,512.000000) scale(0.100000,-0.100000)"
fill="#000000" stroke="none">
<path d="M330 5104 c-113 -30 -207 -110 -262 -222 l-33 -67 -3 -1637 c-2
-1636 -2 -1638 19 -1700 51 -152 175 -255 334 -278 43 -6 442 -10 1022 -10
l952 0 3 -497 3 -498 31 -55 c33 -60 99 -112 162 -130 24 -6 431 -10 1174 -10
1112 0 1138 0 1191 20 62 23 117 76 146 140 20 45 21 57 21 1800 0 1179 -4
1767 -10 1792 -17 60 -69 119 -135 153 l-59 30 -263 3 -263 4 0 406 c0 232 -5
425 -10 450 -18 75 -52 135 -115 197 -62 63 -122 97 -197 115 -28 6 -691 9
-1848 9 -1557 0 -1813 -2 -1860 -15z m3725 -181 c52 -28 89 -68 114 -123 20
-43 21 -64 21 -452 l0 -408 -458 0 -458 0 -24 78 c-109 355 -408 640 -778 740
-87 23 -116 26 -272 26 -135 1 -192 -3 -248 -17 -305 -74 -555 -257 -715 -524
-81 -134 -146 -341 -133 -425 9 -59 53 -121 108 -150 l43 -23 553 -3 552 -3 0
-1134 0 -1135 -990 0 c-809 0 -997 2 -1023 13 -52 22 -98 68 -123 122 l-24 50
0 1595 c0 1094 3 1607 11 1633 14 52 73 115 134 144 l50 23 1810 -3 1810 -2
40 -22z m-1670 -322 c310 -64 561 -276 682 -576 l32 -80 -242 -5 -242 -5 -64
63 c-62 61 -200 142 -241 142 -14 0 -23 22 -44 106 -15 59 -25 108 -23 110 2
3 20 -3 40 -11 49 -20 79 -19 111 6 32 25 36 85 9 117 -10 11 -78 48 -150 82
-105 49 -139 60 -162 55 -37 -8 -44 -17 -130 -160 -80 -135 -87 -170 -46 -210
42 -43 97 -31 139 31 l24 35 12 -53 c6 -29 14 -60 16 -69 3 -13 -5 -18 -38
-23 -173 -27 -340 -142 -418 -288 l-31 -58 -158 0 c-202 0 -201 0 -177 100 63
259 247 490 486 610 81 41 187 76 267 90 90 15 253 11 348 -9z m-213 -686 c29
-115 45 -105 -167 -105 -120 0 -185 4 -185 10 0 6 20 30 44 55 69 68 175 116
250 112 l40 -2 18 -70z m229 -14 l44 -40 -27 -27 c-18 -18 -31 -25 -37 -19
-13 14 -41 125 -31 125 4 0 27 -18 51 -39z m2494 -167 l25 -27 0 -1738 0
-1738 -24 -28 -24 -28 -1131 -3 c-1237 -2 -1175 -5 -1200 55 -8 21 -11 468 -9
1756 l3 1729 28 24 28 24 1140 0 1140 0 24 -26z"/>
<path d="M2840 3564 c-46 -20 -87 -59 -113 -109 -21 -39 -22 -51 -25 -489 -3
-514 -2 -523 70 -594 23 -23 58 -47 77 -54 28 -10 225 -13 886 -13 l850 0 42
22 c51 27 96 82 112 132 7 26 11 181 11 493 l0 454 -27 55 c-19 35 -43 64 -71
84 l-44 30 -866 2 c-758 2 -871 0 -902 -13z m1724 -170 c14 -14 16 -68 16
-448 0 -357 -2 -436 -14 -452 -14 -19 -34 -19 -836 -19 l-822 0 -19 24 c-18
22 -19 45 -19 445 0 365 2 425 16 444 l15 22 824 0 c735 0 825 -2 839 -16z"/>
<path d="M3009 3301 l-29 -29 0 -327 0 -327 29 -29 c29 -29 31 -29 142 -29
137 0 182 13 234 65 66 66 85 184 44 274 -19 43 -19 46 -2 80 9 20 19 67 21
106 3 61 0 77 -25 125 -48 94 -107 120 -276 120 -107 0 -109 -1 -138 -29z
m255 -157 c19 -18 21 -85 4 -102 -7 -7 -36 -12 -65 -12 l-53 0 0 65 0 65 49 0
c32 0 55 -6 65 -16z m0 -300 c9 -8 16 -31 16 -49 0 -47 -22 -65 -81 -65 l-49
0 0 65 0 65 49 0 c32 0 55 -6 65 -16z"/>
<path d="M3562 3320 c-48 -20 -52 -53 -52 -420 l0 -340 85 0 85 0 2 213 3 212
49 -65 c64 -85 82 -100 121 -100 39 0 57 15 121 100 l49 65 3 -212 2 -213 86
0 85 0 -3 359 c-3 333 -4 360 -22 379 -24 28 -69 36 -100 20 -13 -7 -68 -70
-121 -140 -52 -71 -97 -128 -100 -128 -3 0 -48 57 -101 128 -113 151 -133 165
-192 142z"/>
<path d="M4280 2945 l0 -385 85 0 85 0 0 385 0 385 -85 0 -85 0 0 -385z"/>
<path d="M2795 2208 c-44 -24 -45 -31 -45 -284 0 -133 3 -250 6 -259 15 -39
53 -45 289 -45 236 0 274 6 289 45 8 22 8 488 0 510 -15 39 -53 45 -291 45
-146 0 -235 -5 -248 -12z m375 -288 l0 -130 -125 0 -125 0 0 130 0 130 125 0
125 0 0 -130z"/>
<path d="M3459 2191 l-29 -29 0 -242 0 -242 29 -29 29 -29 231 0 c128 0 241 4
256 10 47 18 55 58 55 290 0 232 -8 272 -55 290 -15 6 -128 10 -256 10 l-231
0 -29 -29z m396 -271 l0 -125 -127 -3 -128 -3 0 131 0 131 128 -3 127 -3 0
-125z"/>
<path d="M4139 2191 l-29 -29 0 -242 0 -242 29 -29 29 -29 242 0 242 0 29 29
29 29 0 242 0 242 -29 29 -29 29 -242 0 -242 0 -29 -29z m401 -271 l0 -130
-130 0 -130 0 0 130 0 130 130 0 130 0 0 -130z"/>
<path d="M2810 1533 c-8 -3 -25 -15 -37 -26 -23 -20 -23 -24 -23 -269 l0 -249
25 -24 24 -25 246 0 246 0 24 25 25 24 0 249 0 249 -26 24 c-25 24 -27 24
-257 26 -128 1 -239 -1 -247 -4z m360 -293 l0 -130 -125 0 -125 0 0 130 0 130
125 0 125 0 0 -130z"/>
<path d="M3484 1530 c-51 -20 -54 -37 -54 -298 l0 -243 25 -24 24 -25 245 0
c244 0 245 0 273 24 l28 24 3 224 c2 146 -1 236 -8 261 -18 62 -42 67 -297 66
-120 0 -228 -4 -239 -9z m374 -292 l3 -128 -131 0 -130 0 0 130 0 131 128 -3
127 -3 3 -127z"/>
<path d="M4162 1525 c-18 -8 -37 -26 -42 -40 -6 -15 -10 -128 -10 -256 l0
-231 29 -29 29 -29 242 0 242 0 29 29 29 29 0 231 c0 128 -4 241 -10 256 -18
48 -57 55 -292 55 -161 -1 -221 -4 -246 -15z m376 -287 l3 -128 -131 0 -130 0
0 123 c0 68 3 127 7 131 4 3 61 5 127 4 l121 -3 3 -127z"/>
<path d="M2776 829 l-26 -20 0 -253 c0 -251 0 -253 23 -274 23 -21 30 -22 274
-22 l252 0 20 26 c20 25 21 39 21 271 l0 244 -25 24 -24 25 -244 0 c-232 0
-246 -1 -271 -21z m394 -274 l0 -125 -125 0 -125 0 0 125 0 125 125 0 125 0 0
-125z"/>
<path d="M3455 825 l-25 -24 0 -246 0 -246 25 -24 24 -25 249 0 249 0 24 26
24 26 0 243 0 243 -24 26 -24 26 -249 0 -249 0 -24 -25z m405 -270 l0 -125
-130 0 -130 0 0 125 0 125 130 0 130 0 0 -125z"/>
<path d="M4152 843 c-36 -14 -42 -57 -42 -288 0 -236 6 -274 45 -289 22 -8
488 -8 510 0 39 15 45 53 45 289 0 236 -6 274 -45 289 -20 7 -494 7 -513 -1z
m388 -288 l0 -125 -130 0 -130 0 0 125 0 125 130 0 130 0 0 -125z"/>
</g>
</svg>
