<?xml version="1.0" standalone="no"?>
<!DOCTYPE svg PUBLIC "-//W3C//DTD SVG 20010904//EN"
 "http://www.w3.org/TR/2001/REC-SVG-20010904/DTD/svg10.dtd">
<svg version="1.0" xmlns="http://www.w3.org/2000/svg"
 width="64.000000pt" height="64.000000pt" viewBox="0 0 64.000000 64.000000"
 preserveAspectRatio="xMidYMid meet">

<g transform="translate(0.000000,64.000000) scale(0.100000,-0.100000)"
fill="#000000" stroke="none">
<path d="M120 320 l0 -320 90 0 90 0 0 310 0 310 110 0 c67 0 110 4 110 10 0
6 -73 10 -200 10 l-200 0 0 -320z m160 275 c0 -18 -5 -25 -20 -25 -11 0 -20
-4 -20 -10 0 -5 9 -10 20 -10 13 0 20 -7 20 -20 0 -16 -7 -20 -30 -20 -16 0
-30 -4 -30 -10 0 -5 14 -10 30 -10 23 0 30 -4 30 -20 0 -13 -7 -20 -20 -20
-11 0 -20 -4 -20 -10 0 -5 9 -10 20 -10 13 0 20 -7 20 -20 0 -16 -7 -20 -30
-20 -16 0 -30 -4 -30 -10 0 -5 14 -10 30 -10 23 0 30 -4 30 -20 0 -13 -7 -20
-20 -20 -11 0 -20 -4 -20 -10 0 -5 9 -10 20 -10 13 0 20 -7 20 -20 0 -16 -7
-20 -30 -20 -16 0 -30 -4 -30 -10 0 -5 14 -10 30 -10 23 0 30 -4 30 -20 0 -13
-7 -20 -20 -20 -11 0 -20 -4 -20 -10 0 -5 9 -10 20 -10 13 0 20 -7 20 -20 0
-16 -7 -20 -30 -20 -16 0 -30 -4 -30 -10 0 -5 14 -10 30 -10 23 0 30 -4 30
-20 0 -13 -7 -20 -20 -20 -11 0 -20 -4 -20 -10 0 -5 9 -10 20 -10 15 0 20 -7
20 -25 0 -24 -2 -25 -70 -25 l-70 0 0 300 0 300 70 0 c68 0 70 -1 70 -25z"/>
<path d="M396 544 c-9 -8 -16 -24 -16 -34 0 -43 54 -65 84 -34 31 30 9 84 -34
84 -10 0 -26 -7 -34 -16z m59 -34 c0 -18 -6 -26 -23 -28 -13 -2 -25 3 -28 12
-10 26 4 48 28 44 17 -2 23 -10 23 -28z"/>
<path d="M347 434 c-4 -4 -7 -52 -7 -106 0 -75 3 -100 14 -104 10 -4 16 -35
21 -115 l7 -109 48 0 47 0 8 109 c5 82 10 111 21 115 12 5 14 26 12 108 l-3
103 -80 3 c-45 1 -84 0 -88 -4z m153 -104 c0 -70 -3 -90 -14 -90 -10 0 -15
-27 -21 -110 l-7 -110 -28 0 -28 0 -7 110 c-6 83 -11 110 -21 110 -11 0 -14
20 -14 90 l0 90 70 0 70 0 0 -90z"/>
</g>
</svg>
