<?xml version="1.0" standalone="no"?>
<!DOCTYPE svg PUBLIC "-//W3C//DTD SVG 20010904//EN"
 "http://www.w3.org/TR/2001/REC-SVG-20010904/DTD/svg10.dtd">
<svg version="1.0" xmlns="http://www.w3.org/2000/svg"
 width="48.000000pt" height="48.000000pt" viewBox="0 0 48.000000 48.000000"
 preserveAspectRatio="xMidYMid meet">

<g transform="translate(0.000000,48.000000) scale(0.100000,-0.100000)"
fill="#000000" stroke="none">
<path d="M32 448 c-17 -17 -17 -399 0 -416 17 -17 399 -17 416 0 17 17 17 399
0 416 -17 17 -399 17 -416 0z m403 -208 l0 -195 -195 0 -195 0 -3 185 c-1 101
0 190 3 197 3 11 46 13 197 11 l193 -3 0 -195z"/>
<path d="M164 381 c-58 -26 -61 -37 -24 -76 30 -31 35 -33 54 -20 26 19 66 19
92 0 19 -13 24 -11 54 20 37 39 34 50 -24 76 -52 24 -100 24 -152 0z m141 -15
c40 -17 43 -26 16 -50 -15 -14 -24 -15 -40 -7 -11 6 -31 11 -46 11 -14 0 -28
7 -31 15 -10 25 -25 17 -18 -10 7 -29 -2 -32 -28 -8 -25 23 -23 32 15 48 42
18 89 19 132 1z"/>
</g>
</svg>
